
  <svg
    width="1000"
    height="1000"
    viewBox="0 0 1000 1000"
    xmlns="http://www.w3.org/2000/svg"
  >
    <defs>
      <filter id="grain" x="-50vw" y="-50vh" width="100vw" height="100vh">
    <feFlood flood-color="#ffffff" result="neutral-gray" />
  
    <feTurbulence
      in="neutral-gray"
      type="fractalNoise"
      baseFrequency="2.5"
      numOctaves="100"
      stitchTiles="stitch"
      result="noise"
    />
  
    <feColorMatrix
      in="noise"
      type="saturate"
      values="0"
      result="destaturatedNoise"
    ></feColorMatrix>
  
    <feComponentTransfer in="desaturatedNoise" result="theNoise">
      <feFuncA type="table" tableValues="0 0 0.15 0"></feFuncA>
    </feComponentTransfer>
  
    <feBlend
      in="SourceGraphic"
      in2="theNoise"
      mode="soft-light"
      result="noisy-image"
    />
  </filter>
      
      
      
      
      
      
      <clipPath id="shape">
        <path fill="currentColor" d="M801.5,596.5Q765,693,691.5,778Q618,863,482,918.5Q346,974,268.5,849.5Q191,725,115,612.5Q39,500,96,374Q153,248,277,221.5Q401,195,524.5,119Q648,43,723,163Q798,283,818,391.5Q838,500,801.5,596.5Z"></path>
      </clipPath>
    </defs>
  
    

    <g filter="url(#grain)" clip-path="url(#shape)">
      <path fill="#324154" d="M801.5,596.5Q765,693,691.5,778Q618,863,482,918.5Q346,974,268.5,849.5Q191,725,115,612.5Q39,500,96,374Q153,248,277,221.5Q401,195,524.5,119Q648,43,723,163Q798,283,818,391.5Q838,500,801.5,596.5Z" />
    </g>

    
  
  </svg>